<svg viewBox="0 0 915 938" version="1.1" xmlns="http://www.w3.org/2000/svg">
  <desc>Flex Queue Madness Logo</desc>
  <path fill="#303446" id="fqm-logo" d="M160.061,362.095L0,362.095C64.157,152.552 259.131,0 489.43,0L489.43,150.04C343.191,150.04 217.097,237.04 160.061,362.095ZM160.061,362.095L489.43,362.095L489.43,512.135L127.585,512.135C127.585,458.629 139.207,407.819 160.061,362.095ZM489.391,874.231C289.714,874.21 127.606,711.989 127.585,512.174L489.391,874.231ZM489.468,150.04C689.145,150.06 851.254,312.281 851.275,512.096L489.468,150.04ZM773.639,938L498.005,662.175L639.365,662.175L639.365,520.716L915,796.541C877.601,852.44 829.499,900.575 773.639,938Z"/>
</svg>